<?xml version="1.0" encoding="UTF-8"?><svg id="Layer_2" xmlns="http://www.w3.org/2000/svg" viewBox="0 0 599.35 606.06"><defs><style>.cls-1{fill:#162f67;}.cls-2{fill:#1a346e;}.cls-3{fill:#fff;stroke:#000;stroke-miterlimit:10;}.cls-4{fill:#65d6c2;}.cls-5{fill:#5fd1be;}.cls-6{fill:#fedc4b;}.cls-7{fill:#fe7482;}</style></defs><g id="Layer_1-2"><path class="cls-3" d="M306.33,62.68c72.13,3.87,135.7,91.01,110.83,167-21.01,64.2-100.93,107.57-167.01,77.75-65.84-29.71-81.96-115.85-53.87-173.78,19.13-39.44,62.48-73.52,110.05-70.97Z"/><path class="cls-7" d="M599.35,323.76l-.37,255.5c-.01,10.17-7.8,18.97-15.49,23.45-7.54,4.39-17.37,4.31-24.95.7-8.92-4.24-16.11-10.28-24.12-15.85l-35.33-24.59c-8.9-6.2-19.2-4.9-30.25-2.84l-28.2,5.28-11.98-4.1c-11.53-3.88-21.02-11.48-30.27-18.69-.36-.21-1.04-.55-1.02-1.13-12.81-10.96-22.81-24.58-31.8-38.93l-3.21-5.14c-.14-.17-.25-.53-.04-.77-6.51-14.63-11.36-30.13-11.09-46.21l.08-4.74v-3s-.06-5.02-.06-5.02l2.5-17.82c4.04-16.06,10.14-31.11,19.21-45.48,21.19-33.57,57.15-66.08,93.96-80.92,43.32-17.46,99.8-14.09,130.51,23.12,1.34,2.25.25,5.38,1.94,7.18Z"/><path class="cls-1" d="M185.29,30.78l1.97-1.07c.02.52-.23,1.42-.68,1.74-.33.24-1.15-.25-1.28-.67Z"/><path class="cls-2" d="M189.41,29.69c.48,0,.73.54,1.04.84,2.3,2.22,4.8,5.21,4.8,9.36l-.04,113.65-.64,12.33,1.72-3.15.34,1.08-.34,4.92c-3.06,1.22-1.13,4.03-1.3,6.18-.76,9.75-1.29,19.08-.04,28.91.3,2.38-2.55,3.13-3.33,4.12l-.84,14.16-6.89,6.13c-1.71,1.52-5.57,1.89-7.72,2.2l-11.79,1.73c-.55,1.52-.57,3.62.31,5.42-4.57.78-3.92-3.5-5.06-4.86-2.16-2.59-5.06,1.87-6.06,3.44-4.11-7.25-8.54-2.41-14.81-7.22-5.14,1.39-9.62,3.36-14.88,3.16,1.17,1.86,1.59,4.57.66,4.87-3.91,1.25-4.35-3.97-5.88-5.15-2.23-1.72-6.39-1.08-8.03-3.25-4.13-5.46-8.58,3.16-11.2-.95-1.01-1.59-3.66-2.95-4.5-2.16l-2.99,2.79c-3.76,1.03-9.26.81-12.16-1.93-1.09-1.03-1.73-3.69-4.15-2.1-.67.44-2.05,1.97-2.79,1.54l-2.8-1.62c-1.81-1.04-3.08,2.34-4.1,2.17l-2.91-.47c-.36-.06-.77,2.31-1.32,2.48-2.7.82-7.57-.36-9.17-3.41-1.64.8-3.31,1-4.01.32l-2.34-2.25-7.76,3.54c-4.03,1.84-5,.75-8.74-.33s-10.66,3.3-11.85,6.76c-1.35,3.93-3.16,5.33-7.18,6.33-.69,3.14-2.78,7.33-3.11,10.63l-.58,5.81c-.57.1-1.43,0-1.64-.08l4.03-19.05,9.3-30.38c1.16-3.8,2.99-6.96,4.44-10.46,3.46-8.36,6.36-16.49,11.05-24.29.3-.5-.44-1-.88-.76,10.94-20.94,24.71-40.28,40.46-58.49l12.6-12.45,13.93-13.1c6.3-5.92,12.88-10.99,19.91-16.07l11.6-8.39c1.46-1.06,2.9-2.12,3.39-3.67,15.75-10.77,32.76-19.69,50.15-27.71.14.43.95.91,1.28.67.45-.32.71-1.22.68-1.74l2.16-.03Z"/><path class="cls-1" d="M196.28,205.71l-.16,95.94c0,4.52-5.36,7.47-8.81,8.61l-11.95.42c-.29-.27-.87-.79-1.29-.64-.33.12-.67.45-.88.65l-21.68-.3c-.72,0-1.64-.78-2.29.02l-45.89-.02c-.98-1.09-2.22-.1-3.09-.09l-39.76.18c-2.06,0-4.3-1.42-6.11-.57-.41.19-1.33.02-1.77.05l-6.15.41-5.15-.71-18,.2c-2.52.03-5.08.42-7.95.13-10.33-1.05-15.87-9.4-15.3-19.29l1.04-18.1c3.85-36.15,15.57-70.19,32.15-101.93.44-.24,1.18.26.88.76-4.69,7.8-7.59,15.93-11.05,24.29-1.45,3.5-3.28,6.67-4.44,10.46l-9.3,30.38-4.03,19.05c.21.08,1.08.18,1.64.08l.58-5.81c.33-3.3,2.42-7.49,3.11-10.63,4.02-1,5.83-2.4,7.18-6.33,1.19-3.46,8.3-7.79,11.85-6.76,3.74,1.08,4.71,2.17,8.74.33l7.76-3.54,2.34,2.25c.7.67,2.36.48,4.01-.32,1.6,3.05,6.47,4.23,9.17,3.41.55-.17.96-2.54,1.32-2.48l2.91.47c1.03.17,2.3-3.21,4.1-2.17l2.8,1.62c.75.43,2.12-1.1,2.79-1.54,2.43-1.59,3.06,1.07,4.15,2.1,2.91,2.74,8.4,2.95,12.16,1.93l2.99-2.79c.84-.79,3.49.57,4.5,2.16,2.61,4.11,7.07-4.51,11.2.95,1.64,2.17,5.8,1.54,8.03,3.25,1.53,1.18,1.97,6.4,5.88,5.15.92-.29.5-3.01-.66-4.87,5.26.2,9.74-1.76,14.88-3.16,6.27,4.82,10.7-.02,14.81,7.22,1.01-1.58,3.91-6.03,6.06-3.44,1.14,1.37.49,5.64,5.06,4.86-.88-1.8-.86-3.9-.31-5.42l11.79-1.73c2.16-.32,6.01-.68,7.72-2.2l6.89-6.13.84-14.16c.78-.99,3.63-1.74,3.33-4.12-1.25-9.84-.72-19.17.04-28.91.17-2.15-1.76-4.95,1.3-6.18v37ZM6.39,261.71c0-.61-.5-1.11-1.11-1.11s-1.11.5-1.11,1.11.5,1.11,1.11,1.11,1.11-.5,1.11-1.11Z"/><path class="cls-4" d="M41.28,309.66c-.11.71-.86,1.11-1.93,1.11h-14.14c-1.07,0-1.82-.39-1.93-.91l18-.2Z"/><path class="cls-1" d="M86.3,99.72c14.28-15.94,30.89-29.61,48.84-41.23-.49,1.56-1.93,2.61-3.39,3.67l-11.6,8.39c-7.03,5.09-13.61,10.15-19.91,16.07l-13.93,13.1Z"/><path class="cls-1" d="M196.27,162.71l-1.72,3.15.64-12.33.04-113.65c0-4.14-2.5-7.13-4.8-9.36,3.56.64,5.87,3,5.87,7.27l-.04,124.91Z"/><circle class="cls-2" cx="5.28" cy="261.71" r="1.11"/><path class="cls-5" d="M54.36,309.91c.32,1,1.33,1.83,2.89,1.83l36.97-.03,1.44,4.72,10.94-1.11c3.76,1.24,6.01,1.06,9.82.94,2.15-.07,5.88,2.75,8.79,1.22,3.81-2.01,2.31,6.28,3.59,7.08.7.44,2.38.09,3.84-.87,1.07,4.14,4.22,6.07,9.36,5.04-1.59,6.52,5.52,9.25,6.22,13.82.33,2.15.27,3.92,1.65,5.22,2.74,2.58,7.34-1.51,8.17.61,1.38,3.55-2.26,4.72-2.08,5.79.41,2.45,7.93,2.79,12.84,8.67-1.48,1.51-2.97,1.26-4.54,1.7l1.52,8.93c2.8-.5,4.28.75,5.02,2.25,2.01,4.08-2.89,5.23-2.46,9.3.26,2.4,3.72,1.2,4.84,1.91,6.42,4.05,9.04,7.69,14.62,3.57.85-.62,1.93.81,1.21,1.88-2.32,3.43-8.33.46-14.36,6.3-1.04,1.16,1.22,3.83,2.32,3.85,1.69.04,2.53-1.63,4.35-4.19.48,2.81-.29,5.1.45,7.76l6.39-1.34c2.96,2.45,6.13,3.82,10.44,2.71,2.48,4.24-2.2,8.69.43,12.85.53.84,6.79,2.43,11.84,3.15,2.51.36,4.75,5.59,4.55,7.9-.09.99-1.79,2.26-1.62,2.89.77,2.93,6.29-.73,9.42,5.21,1.17,2.22,1.95,5.2,0,7.2l-2.43.9c-.55.2-.04,2.75.66,2.8,1.98.14,4.47-.11,5.64,1.51,3.68,5.07,7.05,1.38,9.53,4.03,1.03,1.11.21,3.56-.23,5.14,1.76,2.57,3.48,5.67.48,9.16,1.43,1.77,3.1,2.11,5.34,3.05-.86,5.08,2.46,8.88,7.32,10.24l1.26,5.69c6.26,3.88,13.18,2.35,14.4,7.29.36,1.44-1.45,2.19-3.58,3.35l11.07,4.68c.62,2.4,1.32,4.75,3.59,5.78,2.59,1.17,4.84,1.07,7.92-.46.71,1.86-.44,3.38-1.05,3.8-4.98-.22-9.95-1.04-15.28,1.38,8.56,2.25,17.05,3.1,25.91,4.09,2.05.23,3.53,4.26,1.92,5.1-2.61,1.35-6.12,1.54-9.23,1.48l-2.69-1.06c-.99-.39-2.03,2.3-1.29,2.61,2.12.8,3.64,1.83,2.97,5.08l18.64.86,11.01,1.9,3.71,2.82c.94.71,3.11-1.38,4.56-2.14,2.41.66,5.27,2.4,6.25,4.29-4.21,2.94-9.18-.77-8.42,3.24.4,2.11,5.96,2.43,10.83,1.32-1.38,6.2,4.57,8.42,5.96,14.68l5.63-3.27c2.56-1.49,8.6,4.38,12.9,9.29-.35-2,1.15-5.29,2.68-5.31,2.93.84,3.81.22,6.38-.98,3.4-1.59,6.6,3.65,7.86,6.04,5.25-.19,10.89-.88,13.75,6.24,1.83-5.82,5.13-6.31,9.23-6.17l8.06.28c4.19.15,8.66-1.45,12.97.34,2.17.9,3.73.19,4.57-1.71.94-2.13-.77-2.47-2.13-3.86-5.23-5.3-8.87-.34-11.56-1.93s-1.21-5.78-1.86-7.89c-.42-1.36-3.51.7-5.97-.27-2.35-.93-.33-5.48-1.85-6.06-.81-.31-1.89-.46-3.29.6-5.6-4.39-3.25-11.94-14.13-11.48.63-1.8,1.25-3.02,1.15-3.98-.21-2.06-5.02-2.71-6.37-3.78-1.61-1.27.39-6.08-1.5-7.5s-5.26.44-6.63-.24.48-4.91-1.3-6.7c-1.63-1.64-5.69-.93-6.32-1.84-1.14-1.64,2.4-4.34-.67-8.62-.49-.68-.38-2.33-.07-3.02s1.59-.93,2.8-.78c-.2.23-.09.59.04.77l.33,3.33c.13,1.29,1.32,2.25,2.88,1.81,8.99,14.35,18.99,27.98,31.8,38.93l1.02,1.13c9.25,7.21,18.74,14.8,30.27,18.69l11.98,4.1-38.62,5.93-11.69,1.07-11.11,1.11-55.47-.29c-76.94-4.59-145.49-34.26-197.4-91.46-43.86-48.33-68.49-107.43-73.74-171.8.44-.03,1.36.14,1.77-.05ZM189.38,415.28c-.75,1.02-.34,2.47.82,2.94.85.34,1.82.04,2.34-.74,1.63-.93.69-2.01-.02-2.39-.83-.44-1.91-.9-3.14.19ZM363.78,562.71l-.85,2.56,2.92.97.85-2.56-2.92-.97ZM378.39,570.71c0-.61-.5-1.11-1.11-1.11s-1.11.5-1.11,1.11.5,1.11,1.11,1.11,1.11-.5,1.11-1.11Z"/><path class="cls-5" d="M199.43,307.43c-.34,1.55.17,3.2,1.74,4.37l5.85,9.01c.96,1.48,1.59,2.87,3.2,3.1.92.13,1.67.81,1.87,1.73-1.36.43-1,1.73-.2,2.03l2.56.95c.19.37.56.76.83,1.07.17,3.43,3.4,5.31,6.09,6.97.26.3.59.79.93.98.29,1.83,1.33,2.74,2.97,3.17,1.88.49,2.95,2.26,3.87,3.82,2.05,3.47,5.71,6.6,9.43,8.13.23.2.52.64.77.81.15.62.83,1.49,1.31,2.13.33.44.98,1.51,1.72.03.88.63,1.25.95,1.74,1.91,2.02,3.89,6.64,5.29,10.36,8.01,1.95,1.42,3.47,3.8,5.99,2.96l2,.79c-.96,3.32,6.42,3.54,13.13,8.13.51.25.94-.4.72-.87l1.94,1c-.03.51-.06,1.1.05,1.53.1.39.74.85,1.45.54.37-.16.7-.58.62-1.2l2.11.82c-.2,1.32.73,2.12,1.52,2.25,1.32.21,2.49.2,3.47.01,1.12-.21,2.04.5,2.87.79.27,1.74,1.76,2.1,3.52,2.74l9.59,3.51c1.2.44,2.58-.03,2.88-.8.3.1.79.45.95.73.48.86,1.39,1.2,2.33.85,1.05.4,1.82.78,2.74,1.17-.99-.12-1.28,1-.48,1.5,2.95.48,5.2,2.12,7.47,3.44l7.65,4.44,7.81,5.3c1.91,1.3,3.48,3.2,5.51,3.54.41.07.77.52,1.08.7.08,1.94,1.97,2.41,3.28,3.72l7.39,7.39c-2.1,5.98-2.51,11.85-.82,17.06l.06,5.02c-.91.03-1.1.74-1.1,1.5s.19,1.47,1.1,1.5l-.08,4.74c-2.08,2.64-.93,5.62-.97,10.16-4.84-4.22-.67-12.37-3.63-22.12-2.68-.74-5.6-.99-7.69-4.59-1.19,3.94.21,6.41-3.64,9.26-.68-4.19-2.96-7.63-6.88-8.18-2.18-.3-6.57.78-8.27-1.09-3.13-3.53-6.3-4.82-11.1-2.9-1.1.4-2.92-2.69-3.08-4.69-3.11,2.66-5.14,2.21-8.61,1.59-1.1-.2-3.45,1.45-4.3.87-1.24-.83-2.28-2.72-2.13-5.17l-4.34,1.64c-1.11-4.38-3.92-6.83-7.95-5.72-.2-1.43-2.39-3.28-2.99-2.61l-2.25,2.52c-.94,1.05-3.25.44-3.71-.69-1.56-3.83,3.67-7.16.75-11.35-1.75-2.51-3.63-2.52-7.01-1.92-1.59-.13-3.9-4.1-3.09-5.43l3.34.34c1.16.12,1.78-1.82,1.5-3.41l-1.07-6.15c-.62-3.56-4.5-4.72-7.28-3.84-.57-2.18-.03-2.89.62-4.02,3.31-5.77-5.28-12.03-5.81-12.13-2.09-.39-4.91,2.75-5.69,1.93-.65-.69-.66-10.82-5.78-10.7-2.97.07-7.53,1.56-9-2.51.9-.7,2.65-1.65,3-2.55.4-1.03.27-3.78-.93-4.21-3.61,1-2.61,8.58-5.68,5.02-.68-.78-.23-2.06,1.02-3.36-3.38-1.5-6.75-3.25-8.23-6.58-4.19-9.43-14.34-7.88-14.93-10.77-.44-2.13,3.85-1.18,5.21-3.41.58-.95.23-2.49-.73-3.14-.91-.62-2.37-.54-3.84.3-2.66-5.12-.69-10.11-8.61-11.08l1.26-5.46c-2.97-1.75-5.34.73-7.37,2.54-12.09,2.62-21.82-1.79-32.88-1.01-2.61-3.65-6.29-2.8-10.19-3.77l36.12-.26c1.66-.01,2.24-.69,2.93-1.53,3.45-1.14,8.8-4.1,8.81-8.61,1.77,1.58,2.8,3.64,3.31,5.78Z"/><path class="cls-4" d="M353.73,419.87l-2.5,17.82c-1.69-5.22-1.28-11.08.82-17.06l-7.39-7.39c-1.31-1.31-3.21-1.78-3.28-3.72,4.63,2.61,8.04,6.72,12.36,10.35Z"/><path class="cls-4" d="M306.33,387.83c-.3.77-1.68,1.24-2.88.8l-9.59-3.51c-1.76-.64-3.25-1-3.52-2.74l15.98,5.45Z"/><path class="cls-4" d="M260.46,368.6c-2.52.84-4.05-1.54-5.99-2.96-3.72-2.72-8.34-4.12-10.36-8.01l16.35,10.97Z"/><path class="cls-4" d="M238.58,352.76c-3.72-1.52-7.38-4.65-9.43-8.13l9.43,8.13Z"/><path class="cls-4" d="M340.29,408.82c-2.03-.34-3.59-2.24-5.51-3.54l-7.81-5.3-7.65-4.44c-2.27-1.32-4.52-2.96-7.47-3.44-.79-.5-.51-1.62.48-1.5,10.27,4.44,19.72,10.63,27.95,18.23Z"/><path class="cls-4" d="M276.31,376.65c.22.46-.21,1.11-.72.87-6.71-4.58-14.09-4.81-13.13-8.13l13.85,7.26Z"/><path class="cls-4" d="M210.23,323.92c-1.61-.24-2.24-1.62-3.2-3.1l-5.85-9.01c-1.58-1.17-2.09-2.82-1.74-4.37l10.79,16.49Z"/><path class="cls-4" d="M287.47,381.6c-.98.19-2.15.2-3.47-.01-.79-.13-1.71-.94-1.52-2.25,1.73.67,3.67.89,4.99,2.27Z"/><path class="cls-4" d="M280.37,378.52c.08.62-.26,1.04-.62,1.2-.71.32-1.34-.15-1.45-.54-.11-.43-.08-1.02-.05-1.53l2.12.87Z"/><path class="cls-4" d="M214.46,328.62l-2.56-.95c-.8-.3-1.17-1.6.2-2.03,1.02.8,1.77,1.83,2.37,2.98Z"/><path class="cls-4" d="M221.38,336.66c-2.69-1.66-5.92-3.53-6.09-6.97l6.09,6.97Z"/><path class="cls-4" d="M225.28,340.81c-1.64-.43-2.68-1.34-2.97-3.17,1.28.73,2.37,1.71,2.97,3.17Z"/><path class="cls-4" d="M242.37,355.73c-.74,1.48-1.39.41-1.72-.03-.48-.64-1.16-1.51-1.31-2.13l3.03,2.16Z"/><path class="cls-4" d="M309.61,389.42c-.94.35-1.85.02-2.33-.85l2.33.85Z"/><path class="cls-4" d="M100.24,310.3l3.09.09,45.89.02,2.29-.02,21.68.3h2.16s11.95-.42,11.95-.42c-.69.83-1.27,1.51-2.93,1.53l-36.12.26c3.9.98,7.59.13,10.19,3.77,11.06-.78,20.79,3.64,32.88,1.01,2.02-1.81,4.39-4.29,7.37-2.54l-1.26,5.46c7.92.97,5.96,5.96,8.61,11.08,1.47-.84,2.93-.92,3.84-.3.97.66,1.31,2.19.73,3.14-1.36,2.23-5.65,1.28-5.21,3.41.6,2.89,10.75,1.33,14.93,10.77,1.48,3.33,4.85,5.08,8.23,6.58-1.25,1.3-1.69,2.57-1.02,3.36,3.08,3.57,2.07-4.02,5.68-5.02,1.2.43,1.33,3.19.93,4.21-.35.9-2.1,1.86-3,2.55,1.47,4.08,6.03,2.58,9,2.51,5.12-.12,5.13,10.01,5.78,10.7.77.82,3.6-2.32,5.69-1.93.53.1,9.12,6.36,5.81,12.13-.65,1.12-1.18,1.84-.62,4.02,2.78-.87,6.66.28,7.28,3.84l1.07,6.15c.27,1.58-.35,3.52-1.5,3.41l-3.34-.34c-.82,1.32,1.5,5.3,3.09,5.43,3.39-.6,5.26-.58,7.01,1.92,2.92,4.19-2.32,7.51-.75,11.35.46,1.13,2.78,1.75,3.71.69l2.25-2.52c.6-.67,2.79,1.18,2.99,2.61,4.03-1.11,6.84,1.34,7.95,5.72l4.34-1.64c-.15,2.45.88,4.33,2.13,5.17.85.57,3.2-1.07,4.3-.87,3.47.62,5.5,1.07,8.61-1.59.16,2,1.98,5.1,3.08,4.69,4.81-1.92,7.97-.63,11.1,2.9,1.7,1.87,6.09.79,8.27,1.09,3.91.55,6.2,3.99,6.88,8.18,3.85-2.85,2.46-5.32,3.64-9.26,2.09,3.6,5.01,3.85,7.69,4.59,2.96,9.75-1.21,17.9,3.63,22.12.03-4.54-1.11-7.52.97-10.16-.27,16.08,4.58,31.58,11.09,46.21-1.21-.16-2.47.06-2.8.78s-.42,2.34.07,3.02c3.07,4.28-.46,6.98.67,8.62.63.91,4.69.19,6.32,1.84,1.78,1.79-.14,5.98,1.3,6.7s4.82-1.12,6.63.24-.11,6.23,1.5,7.5c1.35,1.07,6.16,1.72,6.37,3.78.1.96-.52,2.19-1.15,3.98,10.88-.46,8.53,7.09,14.13,11.48,1.41-1.06,2.48-.91,3.29-.6,1.52.58-.5,5.14,1.85,6.06,2.46.97,5.55-1.09,5.97.27.65,2.11-.79,6.32,1.86,7.89s6.34-3.37,11.56,1.93c1.37,1.39,3.07,1.73,2.13,3.86-.84,1.91-2.4,2.61-4.57,1.71-4.31-1.79-8.79-.19-12.97-.34l-8.06-.28c-4.11-.14-7.4.35-9.23,6.17-2.85-7.11-8.5-6.43-13.75-6.24-1.25-2.39-4.46-7.63-7.86-6.04-2.56,1.2-3.44,1.82-6.38.98-1.52.02-3.02,3.31-2.68,5.31-4.3-4.91-10.33-10.79-12.9-9.29l-5.63,3.27c-1.39-6.26-7.34-8.48-5.96-14.68-4.87,1.11-10.43.79-10.83-1.32-.76-4.01,4.21-.3,8.42-3.24-.98-1.89-3.84-3.63-6.25-4.29-1.44.76-3.62,2.86-4.56,2.14l-3.71-2.82-11.01-1.9-18.64-.86c.68-3.25-.84-4.28-2.97-5.08-.74-.31.3-3,1.29-2.61l2.69,1.06c3.12.06,6.62-.13,9.23-1.48,1.61-.83.13-4.87-1.92-5.1-8.86-.99-17.35-1.85-25.91-4.09,5.33-2.42,10.3-1.6,15.28-1.38.61-.41,1.76-1.94,1.05-3.8-3.08,1.52-5.34,1.63-7.92.46-2.27-1.03-2.97-3.38-3.59-5.78l-11.07-4.68c2.13-1.16,3.94-1.91,3.58-3.35-1.22-4.93-8.15-3.41-14.4-7.29l-1.26-5.69c-4.86-1.36-8.18-5.16-7.32-10.24-2.25-.94-3.91-1.29-5.34-3.05,2.99-3.49,1.27-6.59-.48-9.16.44-1.58,1.26-4.03.23-5.14-2.48-2.66-5.85,1.03-9.53-4.03-1.17-1.61-3.65-1.37-5.64-1.51-.7-.05-1.21-2.6-.66-2.8l2.43-.9c1.96-2,1.18-4.98,0-7.2-3.13-5.94-8.65-2.28-9.42-5.21-.17-.64,1.54-1.9,1.62-2.89.2-2.31-2.03-7.54-4.55-7.9-5.05-.72-11.31-2.3-11.84-3.15-2.64-4.17,2.04-8.61-.43-12.85-4.31,1.1-7.48-.27-10.44-2.71l-6.39,1.34c-.74-2.66.03-4.95-.45-7.76-1.82,2.57-2.66,4.23-4.35,4.19-1.1-.02-3.36-2.69-2.32-3.85,6.03-5.84,12.04-2.87,14.36-6.3.72-1.07-.36-2.5-1.21-1.88-5.58,4.12-8.21.48-14.62-3.57-1.12-.71-4.58.5-4.84-1.91-.43-4.07,4.47-5.22,2.46-9.3-.74-1.5-2.21-2.75-5.02-2.25l-1.52-8.93c1.57-.44,3.06-.19,4.54-1.7-4.91-5.88-12.43-6.22-12.84-8.67-.18-1.07,3.46-2.25,2.08-5.79-.83-2.12-5.42,1.97-8.17-.61-1.37-1.29-1.32-3.07-1.65-5.22-.7-4.57-7.82-7.3-6.22-13.82-5.13,1.03-8.28-.9-9.36-5.04-1.46.96-3.14,1.3-3.84.87-1.28-.8.22-9.09-3.59-7.08-2.91,1.54-6.64-1.29-8.79-1.22-3.81.13-6.06.3-9.82-.94l-10.94,1.11-1.44-4.72-36.97.03c-1.56,0-2.58-.83-2.89-1.83,1.81-.85,4.06.58,6.11.57l39.76-.18ZM96.94,312.19l-.65.02.65.02h.68l.65-.02-.65-.02h-.68ZM116.36,312.33c-1.05-.99-3.97-.91-6.1-.2.01.04.2.31.53.55,1.8.05,3.71.34,5.57-.34ZM139.25,311.66c-1.87-.84-2.46,1.56-.21,1.2,1.1.27,1.46-1.07.21-1.2Z"/><path class="cls-4" d="M365.55,502.56c-1.55.44-2.75-.51-2.88-1.81l-.33-3.33,3.21,5.14Z"/><path class="cls-4" d="M351.29,445.71c-.9-.03-1.1-.73-1.1-1.5s.19-1.47,1.1-1.5v3Z"/><path class="cls-4" d="M398.38,542.63l-1.02-1.13c-.02.58.66.92,1.02,1.13Z"/><path class="cls-4" d="M189.38,415.28c1.23-1.1,2.32-.63,3.14-.19.71.38,1.65,1.46.02,2.39-.53.78-1.5,1.08-2.34.74-1.17-.47-1.57-1.92-.82-2.94Z"/><rect class="cls-4" x="363.46" y="562.94" width="2.7" height="3.08" transform="translate(-286.06 732.07) rotate(-71.57)"/><circle class="cls-4" cx="377.28" cy="570.71" r="1.11"/><path class="cls-2" d="M103.33,310.4l-3.09-.09c.87,0,2.12-.99,3.09.09Z"/><path class="cls-2" d="M151.52,310.39l-2.29.02c.66-.81,1.58-.03,2.29-.02Z"/><path class="cls-2" d="M175.36,310.68h-2.16c.21-.19.55-.51.88-.64.42-.16,1,.37,1.29.64Z"/><path class="cls-5" d="M116.36,312.33c-1.86.68-3.77.39-5.57.34-.32-.24-.52-.51-.53-.55,2.13-.71,5.05-.78,6.1.2Z"/><path class="cls-5" d="M139.25,311.66c1.25.14.88,1.48-.21,1.2-2.25.36-1.66-2.04.21-1.2Z"/><polygon class="cls-5" points="96.94 312.19 97.62 312.19 98.27 312.21 97.62 312.23 96.94 312.23 96.29 312.21 96.94 312.19"/><path class="cls-6" d="M599.35,323.76c-1.7-1.8-.61-4.92-1.94-7.18-30.71-37.21-87.19-40.58-130.51-23.12-36.8,14.84-72.77,47.35-93.96,80.92-9.07,14.37-15.17,29.42-19.21,45.48-4.32-3.63-7.73-7.74-12.36-10.35-.31-.18-.67-.63-1.08-.7-8.23-7.6-17.68-13.79-27.95-18.23-.92-.4-1.69-.77-2.74-1.17l-2.33-.85c-.16-.28-.64-.63-.95-.73l-15.98-5.45c-.83-.28-1.76-1-2.87-.79-1.32-1.38-3.26-1.6-4.99-2.27l-2.11-.82-2.12-.87-1.94-1-13.85-7.26-2-.79-16.35-10.97c-.49-.95-.86-1.28-1.74-1.91l-3.03-2.16c-.25-.18-.54-.62-.77-.81l-9.43-8.13c-.92-1.56-1.99-3.33-3.87-3.82-.59-1.46-1.68-2.43-2.97-3.17-.34-.2-.67-.68-.93-.98l-6.09-6.97c-.27-.31-.64-.71-.83-1.07-.59-1.14-1.34-2.18-2.37-2.98-.2-.92-.96-1.59-1.87-1.73l-10.79-16.49c-.52-2.14-1.54-4.2-3.31-5.78l.16-95.94c4.3,36.72,31.17,71.29,66.56,85.31,27.71,10.98,63.09,8.81,88.93-5.76,8.94-5.04,18.16-9.72,24.51-17.42l8.23-9.99c15.05-18.27,21.11-37.13,23.33-60.77,5.54-59.06-36.7-111.57-95.37-119.52-17.63-2.39-36.99,1.26-53.39,8.12-33.15,13.87-56.1,43.29-62.46,78.1l-.34-1.08.04-124.91c0-4.27-2.31-6.63-5.87-7.27-.31-.3-.55-.84-1.04-.84,28.16-14.86,68.67-26.28,100.96-28.61l14.88-1.08,27.65.15c28.35,1.71,55.65,6.64,82.42,16.56,65.34,24.21,118.3,69.23,151.18,130.88,19.61,36.77,29.59,76.9,32.29,118.56l.56,57.61Z"/><path class="cls-2" d="M304.67,133.81l17.48,2.86c12.98,3.7,22.78,11.35,29.67,22.51,5.17,8.38,6.8,17.57,6.63,27.55-.14,8.08-.54,15.64-4.32,22.8-8.18,15.48-23.1,26.41-40.68,27.29-30.31,1.53-51.22-17.86-53.72-47.62-.93-11.02,2.3-21.93,7.13-31.78l1.39-1.2c.17-.15-.51-.75-.78-.82,8.45-12.49,21.96-20.42,37.2-21.59ZM303.02,179.95c.5-.32.79-.75,1.11-1.13,4.36-2.52,6.51-8.45,5.88-13.23-.68-5.08-3.78-9.55-8.21-12.31-5.88-3.67-12.2-3.63-17.42.52-6.71,5.34-9.81,14.15-5.02,21.74,3.55,5.64,9.81,9.89,16.41,8.83,3.34-.54,6.3-2.22,7.25-4.42Z"/><path class="cls-1" d="M267.46,155.4c.27.07.95.67.78.82l-1.39,1.2c-4.82,9.85-8.05,20.76-7.13,31.78,2.5,29.76,23.41,49.15,53.72,47.62,17.58-.89,32.5-11.81,40.68-27.29,3.78-7.16,4.18-14.72,4.32-22.8.17-9.98-1.46-19.16-6.63-27.55-6.88-11.16-16.69-18.81-29.67-22.51l-17.48-2.86c17.4-1.33,33.22,5.72,44.43,19.33,10.91,13.24,13.63,31.86,9.2,48.4-3.43,12.8-11.23,22.09-21.95,29.29-6.8,4.56-14.11,6.77-22.43,7.52-32.15,2.91-57.85-23.45-55.72-55.78.65-9.87,3.72-18.97,9.26-27.17Z"/><path class="cls-4" d="M304.12,178.83c-.32.38-.6.81-1.11,1.13-4.23,2.67-10.01,3.83-14.95,1.95s-8.25-6.97-8.92-10.9c-.98-5.75.36-10.48,4.01-14.54s8.64-4.41,14.3-3.57c3.42.51,7.71,3.61,9.67,8,2.7,6.06,1.06,13.04-3.01,17.93Z"/><path class="cls-1" d="M304.12,178.83c4.07-4.89,5.71-11.87,3.01-17.93-1.96-4.4-6.25-7.5-9.67-8-5.65-.84-10.79-.33-14.3,3.57s-4.99,8.79-4.01,14.54c.67,3.94,3.88,8.99,8.92,10.9s10.71.72,14.95-1.95c-.95,2.2-3.91,3.89-7.25,4.42-6.6,1.06-12.86-3.19-16.41-8.83-4.79-7.6-1.69-16.41,5.02-21.74,5.22-4.15,11.54-4.19,17.42-.52,4.43,2.76,7.53,7.23,8.21,12.31.64,4.78-1.52,10.71-5.88,13.23Z"/></g></svg>