<?xml version="1.0" encoding="UTF-8"?><svg id="Layer_2" xmlns="http://www.w3.org/2000/svg" viewBox="0 0 613.8 620.94"><defs><style>.cls-1{fill:#fe7984;}.cls-2{fill:#020202;}.cls-3{fill:#213770;}.cls-4{fill:#1f3871;}.cls-5{fill:#6ad1be;}.cls-6{fill:#fcd54b;}.cls-7{fill:#fefefe;}.cls-8{fill:#fffffe;}</style></defs><path class="cls-2" d="M513.1,581.77c-18.27-13.07-20.59-11.91-42.9-6.44-46.86,11.49-94.2,16.53-142.46,13.18-75.22-5.22-145.3-37.47-196.75-92.51-44.48-47.58-71.93-108.52-76.59-173.76l-37.1-.3c-9.9-.08-16.83-8.69-17.3-18.53,1.82-61.93,23.9-119.79,60.93-169.1,32.01-42.63,73-77.37,121.96-98.95,17.35-7.65,33.42-14.6,51.25-20.54C323.88-15.07,422.25.78,497.75,57.71c49.54,37.36,86.46,88.68,103.75,148.71,7.44,25.84,12.23,51.66,12.24,78.96l.06,302.08c0,11.99-7.88,23.43-17.16,28.91-12.46,7.35-27.62,5.39-38.89-2.67l-44.65-31.95v.02Z"/><path class="cls-6" d="M207.95,310.42l.33-67.16c11.7,25.95,31.01,46.18,56.84,57.89,43.23,19.6,92.71,8.58,124.44-26.54,44.22-48.94,39.78-125.94-10.07-169.11-41.69-36.11-101.97-34.91-143.01,1.77-12.19,10.89-20.89,24.11-28.18,38.83l-.22-100.21c0-4.26-1.92-7.06-3.96-11.03,28.31-13.04,57.64-21.41,87.39-25.02,160.71-19.53,304.47,101.22,313.75,262.78l.36,44.8c-18.09-19.65-41.94-29.63-68.13-31.42-32.59-2.23-63.62,7.22-90.85,25.07-40.64,26.63-73.86,61.31-88.1,109.31-17.09-16.49-37.44-26.66-59.93-33.84-37.78-12.06-72.09-42.94-90.66-76.12h0Z"/><path class="cls-1" d="M507.38,568.74c-7.02-4.78-13.92-6.15-21.86-4.6l-35.43,6.95c-19.16-3.59-34.94-14.99-48.67-28.3-41.56-40.26-51.71-97.61-23.84-149.03,15.77-29.09,38.61-52.54,65.7-71.41,14.62-10.18,29.18-17.82,46.39-23.11,41.98-12.9,89.06-5.97,116.53,30.98l-.17,257.89c0,9.63-7.17,18.09-13.46,21.67-9.02,5.12-19.78,5.04-27.81-.71l-34.63-24.82-22.75-15.49v-.02Z"/><path class="cls-5" d="M434.39,574.96c-34.67,6.28-69.51,8.35-105.01,6.08-64-4.63-124.41-28.43-172.57-70.69-54.55-47.87-88.95-114.48-94.75-188.11l130.17-.14c4.53,0,7.76-2.48,10.6-5.2,7.49,12.69,15.66,23.7,26.21,33.76,21.5,22.59,48.19,38.28,78.15,46.69,18.75,7.45,35.04,17.1,49.19,31.85-7.17,35.67,2.2,72.52,24.17,101.55,13.84,19.18,31.11,32.95,53.83,44.22h.01Z"/><path class="cls-3" d="M200.15,306.02c.08,5.38-4.08,8.44-9.18,8.43l-172.17-.11c-6.83,0-11.44-5.58-11.15-12.23,2.66-60.22,24.24-117.25,60.95-164.73,33.45-43.27,71.19-74.24,121.2-96.37,2.4-1.06,4.03-2.51,6.57-1.35,1.74.8,3.82,3.2,3.82,6.15v44.54l-.14,73.36.08,60.77-.26,60.73.29,20.81h0Z"/><path class="cls-8" d="M243.64,278.08c-18.35-16.22-31.8-38-34.83-62.22-1.59-12.73-1.55-25.96-.2-38.82,3.63-34.58,25.95-64.62,56.71-79.86,37.18-18.42,80.87-11.75,111.06,15.96,49.47,45.41,47.48,124.67-4.24,167.23-37.72,31.04-91.16,30.72-128.51-2.29h.01Z"/><circle class="cls-4" cx="315.91" cy="193.37" r="52.25"/><circle class="cls-7" cx="300.18" cy="174.84" r="15.04" transform="translate(-44.06 128.18) rotate(-22.5)"/></svg>